<?xml version="1.0" encoding="UTF-8"?><svg id="Layer_2" xmlns="http://www.w3.org/2000/svg" viewBox="0 0 479.29 94.31"><defs><style>.cls-1{fill:#fff;stroke-width:0px;}</style></defs><g id="Layer_1-2"><path class="cls-1" d="m127.46,36.15h-14.4v6.39h12.91v9.69h-12.91v14.06h-11.15V26.12h25.54v10.03Z"/><path class="cls-1" d="m162.54,62.7c-3.28,3.06-7.48,4.59-12.62,4.59s-9.34-1.53-12.62-4.59c-3.28-3.06-4.92-7.05-4.92-11.96v-24.62h11.32v24.42c0,1.96.57,3.53,1.72,4.71,1.15,1.18,2.65,1.76,4.5,1.76s3.35-.59,4.5-1.76c1.15-1.18,1.72-2.75,1.72-4.71v-24.42h11.32v24.62c0,4.91-1.64,8.9-4.92,11.96Z"/><path class="cls-1" d="m203.68,26.12v9.97h-10.92v30.19h-11.09v-30.19h-10.92v-9.97h32.94Z"/><path class="cls-1" d="m237.07,62.7c-3.28,3.06-7.48,4.59-12.62,4.59s-9.34-1.53-12.62-4.59c-3.28-3.06-4.92-7.05-4.92-11.96v-24.62h11.32v24.42c0,1.96.57,3.53,1.72,4.71,1.15,1.18,2.65,1.76,4.5,1.76s3.35-.59,4.5-1.76c1.15-1.18,1.72-2.75,1.72-4.71v-24.42h11.32v24.62c0,4.91-1.64,8.9-4.92,11.96Z"/><path class="cls-1" d="m270.6,66.29l-6.5-12.3h-4.01v12.3h-11.06V26.12h17.39c4.35,0,7.93,1.33,10.73,3.98,2.8,2.65,4.2,6.07,4.2,10.25,0,2.43-.56,4.62-1.68,6.58-1.12,1.96-2.69,3.55-4.71,4.76l7.98,14.59h-12.35Zm-10.5-30.33v8.74h5.04c1.51,0,2.7-.41,3.57-1.22s1.3-1.86,1.3-3.15-.43-2.34-1.3-3.15c-.87-.81-2.06-1.22-3.57-1.22h-5.04Z"/><path class="cls-1" d="m298.23,56.68h15.15v9.61h-26.16V26.12h25.68v9.58h-14.68v5.91h13.19v9.07h-13.19v5.99Z"/><path class="cls-1" d="m346.41,67.27c-4.95,0-8.88-1.24-11.81-3.73-2.92-2.48-4.38-5.89-4.38-10.22h11.4c0,1.36.45,2.41,1.36,3.15.91.74,2.03,1.11,3.38,1.11,1.23,0,2.3-.31,3.19-.92.9-.62,1.34-1.45,1.34-2.49,0-.41-.07-.78-.21-1.11-.14-.33-.4-.62-.77-.9-.37-.27-.71-.49-1.02-.67-.31-.18-.8-.37-1.48-.57-.68-.21-1.21-.36-1.58-.46-.37-.1-1-.26-1.88-.46-3.21-.8-5.53-1.55-6.95-2.24-3.6-1.74-5.66-4.45-6.16-8.15-.08-.62-.11-1.27-.11-1.96,0-3.92,1.36-6.97,4.08-9.16,2.72-2.18,6.46-3.28,11.22-3.28s8.52,1.16,11.18,3.47c2.65,2.32,3.98,5.53,3.98,9.63h-11.12c0-1.21-.39-2.14-1.18-2.79-.78-.64-1.78-.97-3-.97-1.06,0-1.97.24-2.73.71-.76.48-1.13,1.15-1.13,2.03,0,.37.07.71.21,1.01.14.3.39.57.74.83s.69.47,1.01.64c.32.18.8.36,1.44.56.64.2,1.16.35,1.55.46.39.11,1.01.27,1.85.48.88.22,1.56.4,2.04.53.49.13,1.17.34,2.04.62.88.28,1.58.54,2.1.77.52.23,1.16.56,1.92.97.76.41,1.36.82,1.82,1.23.46.41.95.92,1.47,1.53s.93,1.24,1.22,1.9c.29.66.53,1.43.73,2.31.2.88.29,1.81.29,2.8,0,4.26-1.47,7.54-4.41,9.86-2.94,2.32-6.82,3.47-11.64,3.47Z"/><path class="cls-1" d="m403.61,66.29h-13.11l-11.51-17.73v17.73h-11.06V26.12h11.06v16.95l10.59-16.95h12.83l-12.86,19.47,14.06,20.7Z"/><path class="cls-1" d="m406.24,66.29V26.12h11.2v40.17h-11.2Z"/><path class="cls-1" d="m436.02,56.15h14.28v10.14h-25.49V26.12h11.2v30.03Z"/><path class="cls-1" d="m465.01,56.15h14.28v10.14h-25.49V26.12h11.2v30.03Z"/><path class="cls-1" d="m2.23,79.03c-.04.34-.05.67-.05,1,0,7.87,6.78,14.27,15.12,14.27s15.12-6.4,15.12-14.27v-11.7H15.97c-8.13,0-12.7,4.98-13.62,9.92-.05.26-.09.52-.12.78Z"/><path class="cls-1" d="m68.37,49.35c0-4.84-2.16-9.21-6.09-12.29L29.5,11.34c-2.57-2.02-3.64-5.23-2.79-8.37.3-1.11.82-2.11,1.5-2.96h-12.34C7.55,0,2.69,5.51.9,10.66-.88,15.82-.45,23.16,6.09,28.29l32.77,25.72c2.54,2,3.62,5.17,2.82,8.29-.3,1.15-.81,2.18-1.5,3.05h12.31c9.94,0,15.87-8.14,15.87-16Z"/><path class="cls-1" d="m65.89,28.55c7.87,0,14.27-6.4,14.27-14.27S73.76,0,65.89,0h-31.44c-.26,0-.51.02-.76.05-2.38.33-3.68,2.12-4.11,3.69-.54,2,.12,3.96,1.76,5.25l24.91,19.55h9.63Z"/><path class="cls-1" d="m2.18,55.72v15.9c.69-.89,1.49-1.72,2.38-2.45,3.04-2.5,6.98-3.82,11.41-3.82h17.94c.3,0,.59-.02.87-.07,2.34-.37,3.61-2.17,4.01-3.73.51-1.98-.15-3.93-1.77-5.2h0l-21.82-17.13c-7.13,2.39-13.02,9.77-13.02,16.5Z"/></g></svg>